<?xml version="1.0" standalone="no"?><!DOCTYPE svg PUBLIC "-//W3C//DTD SVG 1.1//EN" "http://www.w3.org/Graphics/SVG/1.1/DTD/svg11.dtd"><svg t="1579510524261" class="icon" viewBox="0 0 1155 1024" version="1.1" xmlns="http://www.w3.org/2000/svg" p-id="7305" xmlns:xlink="http://www.w3.org/1999/xlink" width="225.5859375" height="200"><defs><style type="text/css"></style></defs><path d="M36.507826 329.238261m-36.507826 0a36.507826 36.507826 0 1 0 73.015652 0 36.507826 36.507826 0 1 0-73.015652 0Z" fill="#0FB2C8" p-id="7306"></path><path d="M60.994783 231.513043m-34.059131 0a34.05913 34.05913 0 1 0 68.118261 0 34.05913 34.05913 0 1 0-68.118261 0Z" fill="#FFFFFF" p-id="7307"></path><path d="M60.994783 274.253913a42.74087 42.74087 0 1 1 42.51826-42.74087 42.74087 42.74087 0 0 1-42.51826 42.74087z m0-68.34087a25.6 25.6 0 1 0 25.6 25.6 25.6 25.6 0 0 0-25.6-25.6z" fill="#0FB2C8" p-id="7308"></path><path d="M121.989565 146.253913m-34.05913 0a34.05913 34.05913 0 1 0 68.118261 0 34.05913 34.05913 0 1 0-68.118261 0Z" fill="#0FB2C8" p-id="7309"></path><path d="M109.746087 426.74087m-36.507826 0a36.507826 36.507826 0 1 0 73.015652 0 36.507826 36.507826 0 1 0-73.015652 0Z" fill="#0FB2C8" p-id="7310"></path><path d="M146.253913 292.507826m-40.292174 0a40.292174 40.292174 0 1 0 80.584348 0 40.292174 40.292174 0 1 0-80.584348 0Z" fill="#FFFFFF" p-id="7311"></path><path d="M146.253913 341.25913a48.751304 48.751304 0 1 1 48.751304-48.751304 48.751304 48.751304 0 0 1-48.751304 48.751304z m0-80.361739A31.610435 31.610435 0 1 0 178.086957 292.507826a31.833043 31.833043 0 0 0-31.833044-31.610435zM1006.413913 434.086957a10.685217 10.685217 0 0 1-8.904348-16.473044 378.434783 378.434783 0 0 0 46.970435-103.513043 456.570435 456.570435 0 0 0-56.765217 16.91826c-56.097391 19.144348-76.354783 24.709565-85.036522 12.466087-45.857391-63.666087-135.568696-111.304348-239.749565-125.996521-22.26087-3.116522-20.48-30.052174-19.589566-53.871305a89.043478 89.043478 0 0 0-2.003478-31.610434 304.751304 304.751304 0 0 0-56.987826 42.295652C554.518261 200.347826 535.81913 214.817391 523.130435 216.375652c-171.408696 22.26087-277.370435 104.848696-293.398261 176.083478a10.685217 10.685217 0 1 1-20.702609-4.674782c20.925217-93.050435 148.925217-172.29913 311.652174-192.556522a260.006957 260.006957 0 0 0 50.086957-37.175652C605.273043 129.113043 627.311304 111.304348 642.226087 111.304348a19.589565 19.589565 0 0 1 14.469565 6.010435 66.782609 66.782609 0 0 1 7.791305 47.193043 86.594783 86.594783 0 0 0 2.226086 32.50087c107.965217 15.36 201.906087 64.77913 251.547827 131.784347a359.290435 359.290435 0 0 0 62.553043-17.808695c54.53913-18.476522 76.8-25.377391 83.255652-9.126957 11.353043 29.161739-48.306087 126.441739-48.973913 127.554783a10.685217 10.685217 0 0 1-8.681739 4.674783z" fill="#0FB2C8" p-id="7312"></path><path d="M560.751304 873.73913c29.161739 0 106.184348 61.885217 133.565218 58.10087 20.257391-2.893913-8.681739-70.789565 10.462608-75.464348C807.17913 830.775652 890.434783 779.130435 936.292174 712.347826c11.353043-16.250435 156.93913 58.323478 163.394783 40.292174 7.791304-22.26087-56.097391-135.791304-56.097392-158.942609s64.77913-135.791304 56.097392-158.497391c-6.678261-17.363478-154.045217 53.203478-165.175653 37.175652-54.53913-76.8-159.165217-133.565217-285.384347-152.709565-28.493913-4.229565 4.674783-99.951304-25.822609-99.951304-26.045217 0-114.42087 95.276522-139.130435 98.393043-192.333913 24.041739-337.92 138.24-337.92 275.366957 0 154.713043 185.655652 280.264348 414.497391 280.264347z" fill="#FFFFFF" p-id="7313"></path><path d="M691.867826 944.306087A183.652174 183.652174 0 0 1 619.074783 912.695652a205.467826 205.467826 0 0 0-58.323479-27.158261C325.453913 885.982609 133.565217 754.643478 133.565217 593.474783c0-141.133913 146.69913-262.233043 348.605218-287.610435a303.193043 303.193043 0 0 0 58.100869-44.521739c39.846957-34.05913 65.224348-54.761739 82.587826-54.761739a22.26087 22.26087 0 0 1 16.695653 6.900869c10.685217 11.130435 10.017391 31.610435 9.126956 55.206957a101.509565 101.509565 0 0 0 2.448696 38.511304c124.66087 18.031304 233.516522 75.909565 290.726956 154.713043a410.935652 410.935652 0 0 0 72.347826-20.925217c58.991304-20.257391 89.043478-30.497391 96.166957-10.907826 6.233043 15.805217-5.342609 44.521739-31.165217 101.509565a335.693913 335.693913 0 0 0-24.264348 61.44 365.078261 365.078261 0 0 0 24.041739 61.885218c26.490435 57.433043 37.843478 86.594783 32.278261 101.954782l-1.78087 4.674783-6.678261 4.229565c-12.243478 5.787826-34.726957-1.78087-87.04-21.147826a401.808696 401.808696 0 0 0-71.68-22.26087c-47.415652 66.782609-133.565217 119.763478-234.184348 145.808696a125.328696 125.328696 0 0 0 2.448696 24.486957c2.893913 22.26087 6.233043 48.083478-16.027826 51.2zM623.304348 231.067826a353.502609 353.502609 0 0 0-66.782609 49.419131c-34.504348 29.384348-56.32 47.415652-71.012174 49.41913-189.662609 24.041739-327.234783 134.678261-327.234782 263.568696 0 147.812174 180.535652 267.130435 402.253913 267.130434a184.097391 184.097391 0 0 1 70.344347 30.274783 244.869565 244.869565 0 0 0 59.213914 28.93913 142.469565 142.469565 0 0 0-1.78087-24.041739c-2.893913-22.26087-6.010435-46.302609 14.024348-51.2 98.393043-24.709565 180.313043-75.464348 224.612174-139.353043 10.24-14.692174 33.613913-7.568696 98.170434 16.473043a545.836522 545.836522 0 0 0 63.443479 20.925218 561.641739 561.641739 0 0 0-30.274783-77.467826 258.893913 258.893913 0 0 1-26.045217-71.68 249.989565 249.989565 0 0 1 26.267826-71.457392A480.612174 480.612174 0 0 0 1088.333913 445.217391a542.274783 542.274783 0 0 0-65.224348 19.812174c-64.77913 22.26087-89.043478 28.93913-98.393043 14.692174-53.203478-74.796522-155.826087-130.003478-277.147826-147.812174-24.932174-3.561739-23.596522-35.172174-22.26087-62.998261a103.735652 103.735652 0 0 0-2.003478-37.843478z" fill="#0866A7" p-id="7314"></path><path d="M316.994783 512m-48.751305 0a48.751304 48.751304 0 1 0 97.502609 0 48.751304 48.751304 0 1 0-97.502609 0Z" fill="#0FB2C8" p-id="7315"></path><path d="M316.994783 572.994783A60.994783 60.994783 0 1 1 378.434783 512a60.994783 60.994783 0 0 1-61.44 60.994783z m0-97.502609A36.507826 36.507826 0 1 0 353.502609 512a36.507826 36.507826 0 0 0-36.507826-36.507826z" fill="#0866A7" p-id="7316"></path><path d="M438.761739 816.751304a12.243478 12.243478 0 0 1-9.794782-19.366956 360.848696 360.848696 0 0 0 77.690434-212.146087 360.848696 360.848696 0 0 0-77.690434-212.146087 12.243478 12.243478 0 0 1 19.589565-14.469565 384.667826 384.667826 0 0 1 82.365217 226.615652 384.667826 384.667826 0 0 1-82.365217 226.615652 12.243478 12.243478 0 0 1-9.794783 4.897391z" fill="#0866A7" p-id="7317"></path><path d="M999.513043 0h146.253914v34.05913H999.513043z" fill="#0866A7" p-id="7318"></path><path d="M1121.502609 0h34.05913v146.253913h-34.05913z" fill="#0866A7" p-id="7319"></path><path d="M24.486957 989.94087h146.253913V1024H24.486957z" fill="#0866A7" p-id="7320"></path><path d="M14.692174 877.746087h34.05913V1024H14.692174z" fill="#0866A7" p-id="7321"></path></svg>